<svg xmlns="http://www.w3.org/2000/svg" fill="none" viewBox="0 0 261 40" height="40" width="261">
<path fill="#151515" d="M197.001 1.28609C195.951 0.422439 194.657 0 193.119 0H175.777L177.1 1.38935C176.321 2.23422 175.918 3.24807 175.927 4.44966V15.095C175.909 16.3436 176.424 17.4044 177.494 18.2586C178.553 19.1223 179.857 19.5447 181.395 19.5447H193.747C195.285 19.5447 196.476 19.1129 197.311 18.2586C198.146 17.395 198.577 16.3436 198.596 15.095V4.44966C198.596 3.20113 198.071 2.14973 197.02 1.28609H197.001ZM190.999 14.8322H183.477C182.915 14.8322 182.464 14.3722 182.464 13.8184V5.75452C182.464 5.19127 182.924 4.74067 183.477 4.74067H190.999C191.562 4.74067 192.012 5.20066 192.012 5.75452V13.8184C192.012 14.3816 191.552 14.8322 190.999 14.8322Z"></path>
<path fill="#151515" d="M244.091 0V10.6172L234.506 0H225.465L227.913 2.60033V19.5541H234.468V8.57076L244.391 19.5541H250.647V0H244.091Z"></path>
<path fill="#151515" d="M222.733 1.30486C221.673 0.431823 220.379 0 218.84 0H199.633L202.081 2.60971V19.5635H208.646V13.1518H211.806L217.424 19.5635H224.955L218.7 13.1518H218.831C220.726 13.1518 222.114 12.7106 222.976 11.8376C223.849 10.9552 224.29 9.91317 224.299 8.70218V4.46844C224.299 3.23868 223.783 2.18728 222.723 1.31425L222.733 1.30486ZM215.914 8.63647H208.646V4.73128H215.914C216.927 4.73128 217.743 5.548 217.743 6.56184V6.8153C217.743 7.81976 216.927 8.64585 215.914 8.64585V8.63647Z"></path>
<path fill="#151515" d="M171.5 2.49707C171.096 1.71791 170.449 1.10772 169.558 0.666509C168.667 0.225298 167.645 0 166.482 0H148.344L150.763 2.60971V19.5635H168.649C169.783 19.5635 170.721 19.2725 171.443 18.6904C172.166 18.1084 172.7 17.395 173.028 16.5313C173.357 15.6677 173.497 14.7477 173.441 13.762C173.385 12.7763 173.141 11.8658 172.7 11.0303C172.194 10.054 171.5 9.33114 170.628 8.85238C170.965 8.59892 171.256 8.21403 171.49 7.70711C171.725 7.20019 171.884 6.63694 171.969 6.02676C172.053 5.40719 172.053 4.78761 171.987 4.16804C171.922 3.53908 171.753 2.98522 171.5 2.49707ZM163.847 7.84792H157.319V6.33654L155.509 4.69373H163.837C164.803 4.69373 165.535 5.30392 165.535 5.94227V6.58062C165.535 6.98428 165.019 7.83854 163.847 7.83854V7.84792ZM164.944 14.8322H157.319V11.6498H164.944C165.919 11.6498 166.651 12.2694 166.651 12.9078V13.5555C166.651 13.9686 166.126 14.8322 164.944 14.8322Z"></path>
<path fill="#151515" d="M103.67 14.8322V0H97.0859V2.59094V19.5541H114.934V14.8322H103.67Z"></path>
<path fill="#151515" d="M117.026 19.5541H137.087V14.8322H123.563V11.7625H135.577V7.7916H123.563V4.70312V4.69373H137.087V0H114.578L117.026 2.60033V19.5541Z"></path>
<path fill="#151515" d="M23.1561 2.49707C22.7528 1.71791 22.1056 1.10772 21.2147 0.666509C20.3237 0.225298 19.3014 0 18.1385 0H0L2.41973 2.60971V19.5635H20.3049C21.4398 19.5635 22.3776 19.2725 23.0998 18.6904C23.8219 18.1084 24.3565 17.395 24.6848 16.5313C25.013 15.6677 25.1537 14.7477 25.0975 13.762C25.0412 12.7763 24.7974 11.8658 24.3566 11.0303C23.8501 10.054 23.1561 9.33114 22.2838 8.85238C22.6215 8.59892 22.9122 8.21403 23.1467 7.70711C23.3811 7.20019 23.5406 6.63694 23.625 6.02676C23.7094 5.40719 23.7094 4.78761 23.6438 4.16804C23.5781 3.53908 23.4093 2.98522 23.1561 2.49707ZM15.503 7.84792H8.97544V6.33654L7.16535 4.69373H15.4937C16.4597 4.69373 17.1912 5.30392 17.1912 5.94227V6.58062C17.1912 6.98428 16.6754 7.83854 15.503 7.83854V7.84792ZM16.6003 14.8322H8.97544V11.6498H16.6003C17.5757 11.6498 18.3073 12.2694 18.3073 12.9078V13.5555C18.3073 13.9686 17.7821 14.8322 16.6003 14.8322Z"></path>
<path fill="#151515" d="M52.088 19.5541H43.7034L36.8663 14.8322H42.7936L38.6483 6.87162L32.3082 19.5541H25.2461L34.0808 2.60033L31.6611 0H41.8933L52.088 19.5541Z"></path>
<path fill="#151515" d="M45.6172 0L48.0275 2.60033L48.0181 4.69373H56.1026V19.5541H62.6677V4.70312V4.69373H70.3957V0H45.6172Z"></path>
<path fill="#151515" d="M72.4805 0V4.69373H80.1616V19.5541H86.7267V4.70312V4.69373H94.9988V0H72.4805Z"></path>
<path fill="#151515" d="M41.9319 28.8665V33.87C41.9319 34.4144 42.0726 34.8369 42.3633 35.1279C42.6447 35.4189 43.048 35.5597 43.5638 35.5597C44.0796 35.5597 44.4923 35.4189 44.783 35.1279C45.0644 34.8369 45.2145 34.4238 45.2145 33.87V28.8665H46.8463V33.8512C46.8463 34.5365 46.6963 35.1185 46.4056 35.5973C46.1055 36.0666 45.7115 36.4328 45.2145 36.6674C44.7174 36.9021 44.164 37.0242 43.5544 37.0242C42.9448 37.0242 42.4102 36.9021 41.9225 36.6674C41.4348 36.4328 41.0503 36.0666 40.7596 35.5973C40.4782 35.1185 40.3281 34.5459 40.3281 33.8512V28.8665H41.9413H41.9319Z"></path>
<path fill="#151515" d="M53.7982 31.1569C54.2671 31.6357 54.5016 32.3116 54.5016 33.1752V36.9396H52.8791V33.4005C52.8791 32.8936 52.7478 32.4993 52.4946 32.2271C52.2414 31.9548 51.8943 31.814 51.4535 31.814C51.0127 31.814 50.6564 31.9548 50.3938 32.2271C50.1312 32.4993 50.0092 32.8936 50.0092 33.4005V36.9396H48.3867V30.528H50.0092V31.3259C50.2249 31.0443 50.4969 30.8284 50.8346 30.6688C51.1722 30.5092 51.5379 30.4341 51.9412 30.4341C52.7009 30.4341 53.3199 30.6782 53.7889 31.1569H53.7982Z"></path>
<path fill="#151515" d="M57.0794 36.7613C56.6668 36.5736 56.3292 36.3107 56.0947 35.9916C55.8508 35.663 55.7195 35.3063 55.6914 34.912H57.3233C57.3514 35.1561 57.4734 35.3626 57.6891 35.5222C57.9048 35.6818 58.1674 35.7663 58.4862 35.7663C58.8051 35.7663 59.0302 35.7006 59.2084 35.5785C59.3866 35.4565 59.4711 35.2969 59.4711 35.0998C59.4711 34.8932 59.3679 34.7336 59.1522 34.6304C58.9364 34.5271 58.5988 34.4145 58.1392 34.2924C57.6609 34.1798 57.267 34.0578 56.9669 33.9357C56.6668 33.8137 56.4042 33.6259 56.1791 33.3725C55.954 33.119 55.8508 32.7717 55.8508 32.3398C55.8508 31.9831 55.954 31.664 56.1603 31.3729C56.3667 31.0819 56.6574 30.8472 57.0419 30.6783C57.4265 30.5093 57.8767 30.4248 58.3925 30.4248C59.1522 30.4248 59.7618 30.6126 60.2213 30.9974C60.6715 31.3823 60.9247 31.8986 60.9716 32.5464H59.4241C59.4054 32.2929 59.2928 32.0864 59.1053 31.9362C58.9177 31.786 58.6645 31.7109 58.3456 31.7109C58.0549 31.7109 57.8297 31.7672 57.6703 31.8705C57.5109 31.9737 57.4358 32.1333 57.4358 32.3211C57.4358 32.537 57.5484 32.706 57.7641 32.8092C57.9798 32.9219 58.3175 33.0345 58.7677 33.1472C59.2272 33.2598 59.6117 33.3819 59.9118 33.5039C60.2119 33.6259 60.4746 33.8137 60.6903 34.0765C60.9154 34.33 61.0279 34.6773 61.0279 35.0998C61.0279 35.4659 60.9247 35.8038 60.7184 36.0948C60.5121 36.3858 60.2213 36.6205 59.8368 36.7801C59.4523 36.9491 59.0115 37.0336 58.505 37.0336C57.9986 37.0336 57.5109 36.9397 57.0982 36.752L57.0794 36.7613Z"></path>
<path fill="#151515" d="M64.226 31.861V34.9589C64.226 35.1748 64.2822 35.3344 64.3854 35.4283C64.4886 35.5221 64.6668 35.5691 64.9106 35.5691H65.6609V36.9303H64.648C63.2787 36.9303 62.6034 36.2637 62.6034 34.9401V31.8516H61.8438V30.5186H62.6034V28.9321H64.2353V30.5186H65.6703V31.8516H64.2353L64.226 31.861Z"></path>
<path fill="#151515" d="M68.0069 36.6298C67.5098 36.3576 67.1253 35.9727 66.8439 35.4657C66.5626 34.9682 66.4219 34.3862 66.4219 33.7291C66.4219 33.0719 66.572 32.4993 66.8533 31.9924C67.1441 31.4948 67.538 31.1006 68.035 30.8283C68.5321 30.5561 69.0948 30.4153 69.7138 30.4153C70.3328 30.4153 70.8861 30.5561 71.3926 30.8283C71.899 31.1006 72.2929 31.4948 72.5743 31.9924C72.8651 32.4899 73.0058 33.0719 73.0058 33.7291C73.0058 34.3862 72.8557 34.9682 72.5649 35.4657C72.2648 35.9633 71.8709 36.3576 71.3645 36.6298C70.858 36.902 70.2953 37.0428 69.6669 37.0428C69.0386 37.0428 68.4946 36.902 68.0069 36.6298ZM70.5017 35.4188C70.7549 35.278 70.9612 35.0621 71.1206 34.7805C71.2707 34.4988 71.3551 34.1515 71.3551 33.7384C71.3551 33.1283 71.1956 32.6589 70.8768 32.3303C70.5579 32.0018 70.164 31.8422 69.7044 31.8422C69.2449 31.8422 68.8604 32.0112 68.5415 32.3303C68.232 32.6589 68.0725 33.1283 68.0725 33.7384C68.0725 34.3486 68.2226 34.818 68.5321 35.1466C68.8322 35.4751 69.2167 35.6347 69.6857 35.6347C69.9764 35.6347 70.2578 35.5596 70.511 35.4188H70.5017Z"></path>
<path fill="#151515" d="M76.6807 30.7251C77.0465 30.528 77.4685 30.4341 77.9375 30.4341C78.4814 30.4341 78.9785 30.5655 79.4193 30.8377C79.8601 31.11 80.2165 31.4949 80.4697 31.9924C80.7229 32.4899 80.8542 33.0626 80.8542 33.7197C80.8542 34.3768 80.7229 34.9588 80.4697 35.4658C80.2071 35.9727 79.8601 36.367 79.4193 36.6392C78.9785 36.9208 78.4814 37.0522 77.9375 37.0522C77.4685 37.0522 77.0559 36.9584 76.6901 36.7612C76.3337 36.5641 76.043 36.3294 75.8179 36.029V39.9999H74.1953V30.5373H75.8179V31.4667C76.0242 31.1757 76.3149 30.9316 76.6807 30.7345V30.7251ZM78.9691 32.7152C78.8097 32.4336 78.6034 32.2177 78.3407 32.0769C78.0781 31.9361 77.8061 31.861 77.506 31.861C77.2059 31.861 76.9339 31.9361 76.6807 32.0863C76.4275 32.2365 76.2118 32.4524 76.0617 32.7434C75.9023 33.025 75.8273 33.363 75.8273 33.7479C75.8273 34.1327 75.9023 34.4707 76.0617 34.7523C76.2212 35.0339 76.4275 35.2592 76.6807 35.4094C76.9433 35.5596 77.2153 35.6347 77.506 35.6347C77.7968 35.6347 78.0875 35.5596 78.3407 35.4C78.6034 35.2498 78.8097 35.0246 78.9691 34.7429C79.1285 34.4613 79.2036 34.114 79.2036 33.7291C79.2036 33.3442 79.1285 33.0062 78.9691 32.7246V32.7152Z"></path>
<path fill="#151515" d="M84.5205 30.7251C84.8863 30.528 85.3083 30.4341 85.7773 30.4341C86.3212 30.4341 86.8183 30.5655 87.2591 30.8377C87.6999 31.11 88.0563 31.4949 88.3095 31.9924C88.5627 32.4899 88.694 33.0626 88.694 33.7197C88.694 34.3768 88.5627 34.9588 88.3095 35.4658C88.0469 35.9727 87.6999 36.367 87.2591 36.6392C86.8183 36.9208 86.3212 37.0522 85.7773 37.0522C85.3083 37.0522 84.8956 36.9584 84.5299 36.7612C84.1735 36.5641 83.8827 36.3294 83.6577 36.029V39.9999H82.0352V30.5373H83.6577V31.4667C83.864 31.1757 84.1547 30.9316 84.5205 30.7345V30.7251ZM86.8089 32.7152C86.6495 32.4336 86.4431 32.2177 86.1805 32.0769C85.9179 31.9361 85.6459 31.861 85.3458 31.861C85.0457 31.861 84.7737 31.9361 84.5205 32.0863C84.2673 32.2365 84.0516 32.4524 83.9015 32.7434C83.7421 33.025 83.667 33.363 83.667 33.7479C83.667 34.1327 83.7421 34.4707 83.9015 34.7523C84.061 35.0339 84.2673 35.2592 84.5205 35.4094C84.7831 35.5596 85.0551 35.6347 85.3458 35.6347C85.6366 35.6347 85.9273 35.5596 86.1805 35.4C86.4431 35.2498 86.6495 35.0246 86.8089 34.7429C86.9683 34.4613 87.0434 34.114 87.0434 33.7291C87.0434 33.3442 86.9683 33.0062 86.8089 32.7246V32.7152Z"></path>
<path fill="#151515" d="M89.8493 31.9831C90.112 31.4856 90.459 31.1007 90.8998 30.8285C91.3406 30.5562 91.8376 30.4248 92.3816 30.4248C92.8599 30.4248 93.282 30.5187 93.6384 30.7158C93.9948 30.913 94.2855 31.1476 94.5012 31.448V30.5374H96.1331V36.9491H94.5012V36.0103C94.2949 36.3107 94.0042 36.5548 93.6384 36.7613C93.2726 36.9585 92.8505 37.0524 92.3722 37.0524C91.8283 37.0524 91.3406 36.9115 90.8998 36.6393C90.459 36.3577 90.1026 35.9728 89.8493 35.4659C89.5867 34.9589 89.4648 34.3769 89.4648 33.7198C89.4648 33.0627 89.5961 32.4994 89.8493 31.9925V31.9831ZM94.2667 32.7247C94.1167 32.4431 93.901 32.2272 93.6478 32.077C93.3852 31.9268 93.1038 31.8517 92.8037 31.8517C92.5035 31.8517 92.2222 31.9268 91.9689 32.0676C91.7157 32.2178 91.5094 32.4243 91.35 32.706C91.1905 32.9876 91.1155 33.3255 91.1155 33.7104C91.1155 34.0953 91.1999 34.4333 91.35 34.7243C91.5094 35.0153 91.7157 35.2312 91.9783 35.3908C92.2409 35.541 92.5129 35.6255 92.8037 35.6255C93.0944 35.6255 93.3852 35.5504 93.6478 35.4002C93.9104 35.25 94.1167 35.0341 94.2667 34.7524C94.4262 34.4708 94.5012 34.1329 94.5012 33.7386C94.5012 33.3443 94.4262 33.0064 94.2667 32.7247Z"></path>
<path fill="#151515" d="M100.192 30.7159C100.558 30.5188 100.98 30.4249 101.449 30.4249C101.993 30.4249 102.49 30.5563 102.931 30.8285C103.372 31.1008 103.728 31.4857 103.981 31.9832C104.235 32.4807 104.366 33.0534 104.366 33.7105C104.366 34.3676 104.235 34.9496 103.981 35.4566C103.719 35.9635 103.372 36.3578 102.931 36.63C102.49 36.9116 101.993 37.043 101.449 37.043C100.971 37.043 100.549 36.9492 100.192 36.7614C99.836 36.5737 99.5453 36.3296 99.3296 36.0292V36.9398H97.707V28.3784H99.3296V31.4669C99.5359 31.1571 99.8266 30.9036 100.192 30.7159ZM102.481 32.7154C102.321 32.4338 102.115 32.2179 101.852 32.0771C101.59 31.9363 101.318 31.8612 101.018 31.8612C100.718 31.8612 100.446 31.9363 100.192 32.0865C99.9392 32.2367 99.7235 32.4526 99.5734 32.7436C99.414 33.0252 99.339 33.3632 99.339 33.748C99.339 34.1329 99.414 34.4709 99.5734 34.7525C99.7329 35.0341 99.9392 35.2594 100.192 35.4096C100.455 35.5598 100.727 35.6349 101.018 35.6349C101.308 35.6349 101.599 35.5598 101.852 35.4002C102.115 35.25 102.321 35.0247 102.481 34.7431C102.64 34.4615 102.715 34.1142 102.715 33.7293C102.715 33.3444 102.64 33.0064 102.481 32.7248V32.7154Z"></path>
<path fill="#151515" d="M107.173 28.3784V36.9398H105.551V28.3784H107.173Z"></path>
<path fill="#151515" d="M114.674 34.2172H109.994C110.032 34.6772 110.191 35.0433 110.482 35.3062C110.763 35.569 111.12 35.7004 111.533 35.7004C112.133 35.7004 112.564 35.4376 112.817 34.9213H114.562C114.374 35.5408 114.018 36.0478 113.493 36.442C112.967 36.8363 112.33 37.0334 111.561 37.0334C110.942 37.0334 110.388 36.8926 109.901 36.6204C109.413 36.3482 109.028 35.9633 108.756 35.4564C108.484 34.9588 108.344 34.3768 108.344 33.7197C108.344 33.0626 108.475 32.4711 108.747 31.9736C109.019 31.4761 109.394 31.0912 109.882 30.8189C110.37 30.5467 110.923 30.4153 111.561 30.4153C112.198 30.4153 112.714 30.5467 113.193 30.8096C113.671 31.0724 114.046 31.4479 114.318 31.9267C114.59 32.4054 114.721 32.9593 114.721 33.5882C114.721 33.8229 114.703 34.0295 114.674 34.2172ZM113.042 33.1376C113.042 32.7246 112.883 32.3867 112.592 32.1332C112.302 31.8797 111.945 31.7577 111.514 31.7577C111.11 31.7577 110.773 31.8797 110.501 32.1238C110.229 32.3679 110.06 32.7058 109.994 33.1376H113.033H113.042Z"></path>
<path fill="#151515" d="M124.233 32.5744C124.026 32.9499 123.707 33.2597 123.276 33.485C122.845 33.7196 122.291 33.8323 121.625 33.8323H120.275V36.9302H118.652V28.8569H121.625C122.254 28.8569 122.779 28.9696 123.22 29.1855C123.661 29.4014 123.989 29.7018 124.205 30.0773C124.42 30.4528 124.533 30.8846 124.533 31.3634C124.533 31.7952 124.43 32.1989 124.223 32.5744H124.233ZM122.545 32.227C122.76 32.0205 122.873 31.7389 122.873 31.3634C122.873 30.5748 122.432 30.1806 121.55 30.1806H120.266V32.5274H121.55C122.001 32.5274 122.329 32.4242 122.545 32.2176V32.227Z"></path>
<path fill="#151515" d="M126.855 36.6298C126.357 36.3576 125.973 35.9727 125.692 35.4657C125.41 34.9682 125.27 34.3862 125.27 33.7291C125.27 33.0719 125.42 32.4993 125.701 31.9924C125.992 31.4948 126.386 31.1006 126.883 30.8283C127.38 30.5561 127.942 30.4153 128.561 30.4153C129.18 30.4153 129.734 30.5561 130.24 30.8283C130.747 31.1006 131.141 31.4948 131.422 31.9924C131.713 32.4899 131.853 33.0719 131.853 33.7291C131.853 34.3862 131.703 34.9682 131.413 35.4657C131.112 35.9633 130.719 36.3576 130.212 36.6298C129.706 36.902 129.143 37.0428 128.515 37.0428C127.886 37.0428 127.342 36.902 126.855 36.6298ZM129.349 35.4188C129.603 35.278 129.809 35.0621 129.968 34.7805C130.118 34.4988 130.203 34.1515 130.203 33.7384C130.203 33.1283 130.043 32.6589 129.724 32.3303C129.406 32.0018 129.012 31.8422 128.552 31.8422C128.093 31.8422 127.708 32.0112 127.389 32.3303C127.08 32.6589 126.92 33.1283 126.92 33.7384C126.92 34.3486 127.07 34.818 127.38 35.1466C127.68 35.4751 128.064 35.6347 128.533 35.6347C128.824 35.6347 129.105 35.5596 129.359 35.4188H129.349Z"></path>
<path fill="#151515" d="M141.929 30.5281L140.053 36.9397H138.309L137.146 32.4619L135.983 36.9397H134.229L132.344 30.5281H133.985L135.12 35.4096L136.348 30.5281H138.055L139.256 35.4002L140.391 30.5281H141.938H141.929Z"></path>
<path fill="#151515" d="M148.717 34.2172H144.037C144.075 34.6772 144.234 35.0433 144.525 35.3062C144.806 35.569 145.163 35.7004 145.576 35.7004C146.176 35.7004 146.607 35.4376 146.86 34.9213H148.605C148.417 35.5408 148.061 36.0478 147.536 36.442C147.01 36.8363 146.373 37.0334 145.604 37.0334C144.985 37.0334 144.431 36.8926 143.944 36.6204C143.456 36.3482 143.071 35.9633 142.799 35.4564C142.527 34.9588 142.387 34.3768 142.387 33.7197C142.387 33.0626 142.518 32.4711 142.79 31.9736C143.062 31.4761 143.437 31.0912 143.925 30.8189C144.413 30.5467 144.966 30.4153 145.604 30.4153C146.241 30.4153 146.757 30.5467 147.236 30.8096C147.714 31.0724 148.089 31.4479 148.361 31.9267C148.633 32.4054 148.764 32.9593 148.764 33.5882C148.764 33.8229 148.745 34.0295 148.717 34.2172ZM147.085 33.1376C147.085 32.7246 146.926 32.3867 146.635 32.1332C146.345 31.8797 145.988 31.7577 145.557 31.7577C145.153 31.7577 144.816 31.8797 144.544 32.1238C144.272 32.3679 144.103 32.7058 144.037 33.1376H147.076H147.085Z"></path>
<path fill="#151515" d="M152.376 30.7251C152.714 30.528 153.098 30.4341 153.53 30.4341V32.1332H153.098C152.592 32.1332 152.207 32.2552 151.945 32.4899C151.682 32.734 151.56 33.1471 151.56 33.7385V36.9302H149.938V30.5186H151.56V31.5136C151.766 31.1757 152.038 30.9035 152.376 30.7157V30.7251Z"></path>
<path fill="#151515" d="M158.633 36.7331C158.182 36.5454 157.826 36.2637 157.563 35.8976C157.301 35.5315 157.17 35.1091 157.16 34.6116H158.895C158.914 34.9401 159.036 35.203 159.252 35.4001C159.458 35.5972 159.758 35.6911 160.124 35.6911C160.49 35.6911 160.799 35.5972 161.015 35.4189C161.231 35.2405 161.343 34.9964 161.343 34.7054C161.343 34.4707 161.268 34.2736 161.118 34.114C160.968 33.9638 160.79 33.8418 160.574 33.7479C160.349 33.6634 160.049 33.5602 159.664 33.4569C159.139 33.3067 158.717 33.1471 158.389 32.9969C158.061 32.8467 157.779 32.6214 157.545 32.3116C157.31 32.0112 157.198 31.5982 157.198 31.0913C157.198 30.6125 157.32 30.1994 157.554 29.8427C157.789 29.486 158.126 29.2138 158.558 29.026C158.989 28.8383 159.486 28.7444 160.039 28.7444C160.874 28.7444 161.549 28.9509 162.065 29.3546C162.581 29.7582 162.872 30.3215 162.928 31.0537H161.146C161.127 30.7721 161.015 30.5468 160.79 30.3684C160.574 30.1901 160.283 30.0962 159.918 30.0962C159.599 30.0962 159.355 30.1807 159.158 30.3403C158.97 30.4998 158.876 30.7345 158.876 31.0443C158.876 31.2602 158.942 31.4386 159.092 31.5794C159.233 31.7202 159.411 31.8422 159.627 31.9267C159.842 32.0206 160.133 32.1145 160.527 32.2365C161.052 32.3867 161.474 32.5463 161.812 32.6965C162.14 32.8467 162.431 33.0814 162.665 33.3912C162.9 33.701 163.022 34.1046 163.022 34.6022C163.022 35.034 162.909 35.4376 162.684 35.8038C162.459 36.1699 162.131 36.4703 161.699 36.6862C161.268 36.9021 160.752 37.0147 160.161 37.0147C159.599 37.0147 159.092 36.9209 158.642 36.7237L158.633 36.7331Z"></path>
<path fill="#151515" d="M165.581 36.6298C165.084 36.3576 164.7 35.9727 164.418 35.4657C164.137 34.9682 163.996 34.3862 163.996 33.7291C163.996 33.0719 164.146 32.4993 164.428 31.9924C164.718 31.4948 165.112 31.1006 165.609 30.8283C166.106 30.5561 166.669 30.4153 167.288 30.4153C167.907 30.4153 168.46 30.5561 168.967 30.8283C169.473 31.1006 169.867 31.4948 170.149 31.9924C170.439 32.4899 170.58 33.0719 170.58 33.7291C170.58 34.3862 170.43 34.9682 170.139 35.4657C169.839 35.9633 169.445 36.3576 168.939 36.6298C168.432 36.902 167.87 37.0428 167.241 37.0428C166.613 37.0428 166.069 36.902 165.581 36.6298ZM168.076 35.4188C168.329 35.278 168.535 35.0621 168.695 34.7805C168.845 34.4988 168.929 34.1515 168.929 33.7384C168.929 33.1283 168.77 32.6589 168.451 32.3303C168.132 32.0018 167.738 31.8422 167.279 31.8422C166.819 31.8422 166.435 32.0112 166.116 32.3303C165.806 32.6589 165.647 33.1283 165.647 33.7384C165.647 34.3486 165.797 34.818 166.106 35.1466C166.406 35.4751 166.791 35.6347 167.26 35.6347C167.551 35.6347 167.832 35.5596 168.085 35.4188H168.076Z"></path>
<path fill="#151515" d="M173.404 28.3784V36.9398H171.781V28.3784H173.404Z"></path>
<path fill="#151515" d="M181.039 30.5281V36.9397H179.407V36.1324C179.201 36.414 178.929 36.6299 178.591 36.7895C178.254 36.9491 177.888 37.0242 177.503 37.0242C177.006 37.0242 176.556 36.9209 176.172 36.705C175.787 36.4891 175.487 36.1793 175.262 35.7663C175.037 35.3532 174.934 34.8651 174.934 34.2924V30.5281H176.556V34.0578C176.556 34.5647 176.687 34.959 176.941 35.2312C177.194 35.5034 177.541 35.6442 177.982 35.6442C178.422 35.6442 178.779 35.5034 179.032 35.2312C179.285 34.959 179.417 34.5647 179.417 34.0578V30.5281H181.049H181.039Z"></path>
<path fill="#151515" d="M184.519 31.861V34.9589C184.519 35.1748 184.575 35.3344 184.678 35.4283C184.782 35.5221 184.96 35.5691 185.204 35.5691H185.954V36.9303H184.941C183.572 36.9303 182.896 36.2637 182.896 34.9401V31.8516H182.137V30.5186H182.896V28.9321H184.528V30.5186H185.963V31.8516H184.528L184.519 31.861Z"></path>
<path fill="#151515" d="M187.227 29.4954C187.039 29.317 186.945 29.0917 186.945 28.8195C186.945 28.5472 187.039 28.3219 187.227 28.1436C187.414 27.9652 187.649 27.8713 187.939 27.8713C188.23 27.8713 188.465 27.9652 188.652 28.1436C188.84 28.3219 188.934 28.5472 188.934 28.8195C188.934 29.0917 188.84 29.317 188.652 29.4954C188.465 29.6737 188.221 29.7676 187.939 29.7676C187.658 29.7676 187.414 29.6737 187.227 29.4954ZM188.737 30.528V36.9396H187.114V30.528H188.737Z"></path>
<path fill="#151515" d="M191.515 36.6298C191.018 36.3576 190.633 35.9727 190.352 35.4657C190.07 34.9682 189.93 34.3862 189.93 33.7291C189.93 33.0719 190.08 32.4993 190.361 31.9924C190.652 31.4948 191.046 31.1006 191.543 30.8283C192.04 30.5561 192.603 30.4153 193.222 30.4153C193.841 30.4153 194.394 30.5561 194.9 30.8283C195.407 31.1006 195.801 31.4948 196.082 31.9924C196.373 32.4899 196.514 33.0719 196.514 33.7291C196.514 34.3862 196.363 34.9682 196.073 35.4657C195.773 35.9633 195.379 36.3576 194.872 36.6298C194.366 36.902 193.803 37.0428 193.175 37.0428C192.546 37.0428 192.002 36.902 191.515 36.6298ZM194.009 35.4188C194.263 35.278 194.469 35.0621 194.628 34.7805C194.778 34.4988 194.863 34.1515 194.863 33.7384C194.863 33.1283 194.703 32.6589 194.385 32.3303C194.066 32.0018 193.672 31.8422 193.212 31.8422C192.753 31.8422 192.368 32.0112 192.049 32.3303C191.74 32.6589 191.58 33.1283 191.58 33.7384C191.58 34.3486 191.73 34.818 192.04 35.1466C192.34 35.4751 192.725 35.6347 193.193 35.6347C193.484 35.6347 193.766 35.5596 194.019 35.4188H194.009Z"></path>
<path fill="#151515" d="M203.107 31.1569C203.576 31.6357 203.81 32.3116 203.81 33.1752V36.9396H202.188V33.4005C202.188 32.8936 202.056 32.4993 201.803 32.2271C201.55 31.9548 201.203 31.814 200.762 31.814C200.321 31.814 199.965 31.9548 199.702 32.2271C199.44 32.4993 199.318 32.8936 199.318 33.4005V36.9396H197.695V30.528H199.318V31.3259C199.534 31.0443 199.806 30.8284 200.143 30.6688C200.481 30.5092 200.847 30.4341 201.25 30.4341C202.01 30.4341 202.628 30.6782 203.097 31.1569H203.107Z"></path>
<path fill="#151515" d="M206.388 36.7613C205.975 36.5736 205.638 36.3107 205.403 35.9916C205.159 35.663 205.028 35.3063 205 34.912H206.632C206.66 35.1561 206.782 35.3626 206.998 35.5222C207.213 35.6818 207.476 35.7663 207.795 35.7663C208.114 35.7663 208.339 35.7006 208.517 35.5785C208.695 35.4565 208.78 35.2969 208.78 35.0998C208.78 34.8932 208.676 34.7336 208.461 34.6304C208.245 34.5271 207.907 34.4145 207.448 34.2924C206.97 34.1798 206.576 34.0578 206.275 33.9357C205.975 33.8137 205.713 33.6259 205.488 33.3725C205.263 33.119 205.159 32.7717 205.159 32.3398C205.159 31.9831 205.263 31.664 205.469 31.3729C205.675 31.0819 205.966 30.8472 206.351 30.6783C206.735 30.5093 207.185 30.4248 207.701 30.4248C208.461 30.4248 209.07 30.6126 209.53 30.9974C209.98 31.3823 210.233 31.8986 210.28 32.5464H208.733C208.714 32.2929 208.601 32.0864 208.414 31.9362C208.226 31.786 207.973 31.7109 207.654 31.7109C207.363 31.7109 207.138 31.7672 206.979 31.8705C206.819 31.9737 206.744 32.1333 206.744 32.3211C206.744 32.537 206.857 32.706 207.073 32.8092C207.288 32.9219 207.626 33.0345 208.076 33.1472C208.536 33.2598 208.92 33.3819 209.22 33.5039C209.521 33.6259 209.783 33.8137 209.999 34.0765C210.224 34.33 210.336 34.6773 210.336 35.0998C210.336 35.4659 210.233 35.8038 210.027 36.0948C209.821 36.3858 209.53 36.6205 209.145 36.7801C208.761 36.9491 208.32 37.0336 207.814 37.0336C207.307 37.0336 206.819 36.9397 206.407 36.752L206.388 36.7613Z"></path>
<path fill="#151515" d="M259.226 0.478763C259.78 0.797937 260.211 1.23915 260.53 1.8024C260.849 2.36565 260.999 2.9946 260.999 3.68927C260.999 4.38395 260.84 5.0223 260.53 5.58555C260.221 6.14879 259.78 6.59 259.226 6.90918C258.673 7.22835 258.045 7.38794 257.351 7.38794C256.657 7.38794 256.01 7.22835 255.456 6.90918C254.903 6.59 254.471 6.14879 254.153 5.58555C253.834 5.0223 253.684 4.38395 253.684 3.68927C253.684 2.9946 253.843 2.36565 254.153 1.8024C254.462 1.23915 254.903 0.797937 255.456 0.478763C256.01 0.159589 256.638 0 257.351 0C258.063 0 258.673 0.159589 259.226 0.478763ZM259.452 5.839C259.986 5.28514 260.258 4.5717 260.258 3.68927C260.258 2.80685 259.986 2.0934 259.452 1.53954C258.917 0.985683 258.214 0.70406 257.351 0.70406C256.488 0.70406 255.775 0.976296 255.25 1.53954C254.725 2.10279 254.462 2.81624 254.462 3.68927C254.462 4.56231 254.725 5.28514 255.25 5.839C255.775 6.39287 256.478 6.67449 257.351 6.67449C258.223 6.67449 258.917 6.40225 259.452 5.839ZM258.748 3.65172C258.598 3.84886 258.392 3.98968 258.129 4.07416L259.142 5.57616L258.007 5.59493L257.144 4.14927H256.835V5.59493H255.897V1.70852H257.632C258.045 1.70852 258.373 1.82117 258.617 2.03709C258.861 2.253 258.983 2.55339 258.983 2.9195C258.983 3.21051 258.908 3.45459 258.758 3.65172H258.748ZM256.825 3.37949H257.566C257.698 3.37949 257.81 3.34194 257.904 3.26684C257.998 3.19174 258.035 3.08848 258.035 2.95705C258.035 2.82563 257.988 2.72237 257.904 2.65665C257.81 2.59094 257.707 2.56278 257.566 2.56278H256.825V3.37949Z"></path>
</svg>
