<svg width="194" height="42" viewBox="0 0 194 42" xmlns="http://www.w3.org/2000/svg">
    <g fill-rule="nonzero" fill="none">
        <path d="M187.872 25.687a2.33 2.33 0 0 1-1.657-.754 2.306 2.306 0 0 1-.601-1.71 2.255 2.255 0 0 1 1.055-2.15 2.28 2.28 0 0 1 2.405 0 2.255 2.255 0 0 1 1.056 2.15 2.306 2.306 0 0 1-.601 1.71 2.33 2.33 0 0 1-1.657.754m2.258 3.248H194v-11.45h-3.87v.96a3.591 3.591 0 0 0-2.93-1.318c-3.149 0-5.456 2.58-5.456 6.07 0 3.686 2.52 6.072 5.456 6.072a3.577 3.577 0 0 0 2.93-1.433v1.1zm-13.88-16.447v5.956a3.597 3.597 0 0 0-2.935-1.317c-3.144 0-5.451 2.58-5.451 6.07 0 3.686 2.52 6.072 5.45 6.072a3.577 3.577 0 0 0 2.936-1.433v1.075h3.87V12.488h-3.87zm-2.258 13.2a2.33 2.33 0 0 1-1.657-.755 2.306 2.306 0 0 1-.601-1.71 2.255 2.255 0 0 1 1.055-2.15 2.28 2.28 0 0 1 2.406 0 2.255 2.255 0 0 1 1.055 2.15 2.306 2.306 0 0 1-.601 1.71 2.33 2.33 0 0 1-1.657.754m-14.972-3.036c0-1.147.677-1.888 1.709-1.888 1.031 0 1.684.741 1.684 1.888v6.284h3.87V22.1c0-3.108-1.66-4.972-4.272-4.972a3.176 3.176 0 0 0-2.985 1.773v-1.415h-3.864v11.45h3.864l-.006-6.284zm-12.263 3.036a2.33 2.33 0 0 1-1.656-.754 2.306 2.306 0 0 1-.602-1.71 2.255 2.255 0 0 1 1.056-2.15 2.28 2.28 0 0 1 2.405 0 2.255 2.255 0 0 1 1.056 2.15 2.306 2.306 0 0 1-.602 1.71 2.33 2.33 0 0 1-1.657.754m2.259 3.248h3.87v-11.45h-3.87v.96a3.585 3.585 0 0 0-2.93-1.318c-3.15 0-5.457 2.58-5.457 6.07 0 3.686 2.527 6.072 5.457 6.072a3.565 3.565 0 0 0 2.93-1.433v1.1zm-15.137-11.857a1.837 1.837 0 0 1 1.402.472c.38.347.596.837.594 1.35a1.816 1.816 0 0 1-.559 1.41c-.383.367-.908.55-1.437.502h-1.947v-3.734h1.947zm-5.915 11.857h3.968v-4.65h1.61c3.938 0 6.538-2.125 6.538-5.38 0-3.254-2.6-5.306-6.513-5.306h-5.603v15.336zm-7.105-6.593c0-1.913.867-3.109 2.259-3.109.53.004 1.047.16 1.49.45l.915-1.98a2.782 2.782 0 0 0-1.752-.503 3.274 3.274 0 0 0-2.887 1.718v-1.433h-2.136v11.45h2.136l-.025-6.593zm-10.107-3.327c1.8 0 3.125 1.214 3.46 3.327h-6.97c.311-1.913 1.636-3.327 3.51-3.327m.311 10.212a6.122 6.122 0 0 0 4.425-1.7l-1.129-1.457a4.567 4.567 0 0 1-3.223 1.25 3.88 3.88 0 0 1-3.943-3.582h9.156c.049-.252.071-.508.067-.765a5.618 5.618 0 0 0-1.606-4.084 5.68 5.68 0 0 0-4.064-1.702c-3.266 0-5.695 2.678-5.695 5.999a5.885 5.885 0 0 0 1.726 4.29 5.95 5.95 0 0 0 4.304 1.738M94.772 22.27c0-1.888 1.08-3.084 2.881-3.084 1.8 0 2.912 1.214 2.912 3.084v6.678h2.136v-7.012c0-2.896-1.752-4.735-4.468-4.735a3.993 3.993 0 0 0-3.46 1.7v-6.412H92.63v16.447h2.142V22.27zm-5.261-1.961 1.22-1.487a6.127 6.127 0 0 0-8.55.087 6.048 6.048 0 0 0-.071 8.506 6.127 6.127 0 0 0 8.548.228l-1.104-1.554a4.286 4.286 0 0 1-3.095 1.153 3.892 3.892 0 0 1-2.788-1.207 3.85 3.85 0 0 1-1.057-2.836 3.813 3.813 0 0 1 1.057-2.827 3.855 3.855 0 0 1 2.788-1.186 4.286 4.286 0 0 1 3.052 1.123m-17.09.073c0-.838.817-1.463 2.111-1.463a3.469 3.469 0 0 1 2.955 1.317l1.275-1.269c-.793-1.123-2.307-1.766-4.272-1.766-2.692 0-4.157 1.505-4.157 3.18 0 4.062 6.513 2.866 6.513 5.465 0 .983-.794 1.651-2.234 1.651a4.393 4.393 0 0 1-3.51-1.53l-1.22 1.385c.915 1.123 2.502 1.87 4.614 1.87 2.887 0 4.498-1.488 4.498-3.425 0-4.25-6.537-2.962-6.537-5.421m-5.737-4.857a1.325 1.325 0 0 0 1.228-.81 1.312 1.312 0 0 0-.286-1.44 1.33 1.33 0 0 0-1.446-.284 1.317 1.317 0 0 0-.815 1.223c.01.72.595 1.301 1.319 1.31m1.08 1.986h-2.136v11.432H67.8V17.503zM53.926 28.935h2.167v-6.43h6.415v-2.033h-6.415V15.67h7.373v-2.034h-9.54v15.3zM21.01 0C9.363.057-.038 9.484 0 21.069.038 32.653 9.5 42.019 21.147 42c11.647-.019 21.078-9.415 21.078-21C42.182 9.38 32.692-.013 21.01 0z" fill="#FFF"/>
        <path d="M11.123 16.088c1.212-.87.684-3.544-.199-4.69-.908-1.152-2.603-1.373-3.792-.496a2.594 2.594 0 0 0-1.096 1.7c-.117.686.054 1.39.475 1.952.876 1.147 3.375 2.415 4.593 1.534m13.533-1.534a2.55 2.55 0 0 0 .472-1.951 2.6 2.6 0 0 0-1.094-1.7c-1.19-.879-2.888-.658-3.798.494-.882 1.147-1.41 3.822-.192 4.69 1.218.87 3.73-.386 4.593-1.533m-6.956 5.663c.958-.682 2.916.302 3.606 1.208.333.44.47.992.381 1.532a2.04 2.04 0 0 1-.854 1.341c-.935.686-2.264.511-2.977-.392-.69-.9-1.107-3.019-.156-3.683m-4.301 3.683c-.706.925-2.05 1.12-3.003.434a2.046 2.046 0 0 1-.447-2.915c.69-.9 2.654-1.884 3.605-1.208.951.676.541 2.783-.155 3.683m2.231 3.242c.485-.008.97-.046 1.449-.115.003.03.003.06 0 .09-.05.746-.688 1.327-1.458 1.327s-1.407-.58-1.458-1.327v-.09c.483.06.969.091 1.455.09M36 17.277c-.007-2.997-1.239-5.87-3.426-7.984-2.187-2.115-5.15-3.3-8.235-3.293h-2.916v.103c3.648 2.024 5.88 5.809 5.834 9.889-.047 4.08-2.365 7.815-6.058 9.761-.689 2.45-2.98 4.148-5.594 4.148-2.614 0-4.906-1.699-5.595-4.148l-.217-.12V37h11.63v-8.452h2.916c6.424.014 11.644-5.032 11.661-11.27" fill="#0F0F37"/>
    </g>
</svg>
