<svg width="117" height="32" viewBox="0 0 117 32" fill="none" xmlns="http://www.w3.org/2000/svg">
<g id="logo">
<path id="Vector" d="M6.01416 9.53979L12.1085 9.50586C18.4149 9.54762 22.4812 13.9557 22.7916 19.9481V31.998H11.8653V20.4048C12.0904 14.1228 6.01416 9.53979 6.01416 9.53979Z" fill="#012D44"/>
<path id="Vector_2" d="M10.2357 31.9974V21.0332C10.5228 15.7351 5.47609 9.06938 0 9.43216V31.9974H10.2357Z" fill="#012D44"/>
<path id="Vector_3" d="M49.634 9.53125H39.3647V31.9947H49.634V9.53125Z" fill="#012D44"/>
<path id="Vector_4" d="M37.5021 31.9981C30.8801 31.9981 25.5127 27.1228 25.5127 20.7285C25.5127 14.3343 30.8801 9.45898 37.5021 9.45898V31.9981Z" fill="#012D44"/>
<path id="Vector_5" d="M116.687 9.4043H106.242V31.9982H116.687V9.4043Z" fill="#012D44"/>
<path id="Vector_6" d="M85.7653 9.52807L91.8596 9.49414C98.166 9.5359 102.23 13.944 102.543 19.939V31.9993H91.6139V20.3983C91.8389 14.1163 85.7627 9.53068 85.7627 9.53068" fill="#012D44"/>
<path id="Vector_7" d="M89.9249 31.9977V21.0282C90.2121 15.7275 85.2249 9.06445 79.7488 9.422L79.7358 31.9977H89.9249Z" fill="#012D44"/>
<path id="Vector_8" d="M59.3315 9.5476L65.4259 9.51367C71.7349 9.55543 75.7986 13.9636 76.109 19.9559V31.998H65.1827V20.4152C65.4077 14.1332 59.3315 9.55021 59.3315 9.55021" fill="#012D44"/>
<path id="Vector_9" d="M63.491 31.9972V21.0434C63.7782 15.7453 58.7315 9.07961 53.2554 9.43977V31.9972H63.491Z" fill="#012D44"/>
<path id="Vector_10" d="M105.903 3.87049C105.903 1.73298 108.386 0 111.451 0C114.517 0 117 1.73298 117 3.87049C117 6.008 114.517 7.74359 111.451 7.74359C108.386 7.74359 105.903 6.01061 105.903 3.87049Z" fill="#012D44"/>
</g>
</svg>
