<svg width="200" height="38" viewBox="0 0 200 38" fill="none" xmlns="http://www.w3.org/2000/svg">
<path d="M7.14857 25.1664C11.528 25.1664 13.6262 28.5743 13.6262 31.4988C13.6262 34.4234 11.528 37.8313 7.14857 37.8313C2.76919 37.8313 0.67099 34.4113 0.67099 31.4988C0.67099 28.5864 2.76919 25.1664 7.14857 25.1664ZM7.14857 34.508C8.71003 34.508 10.0275 33.2391 10.0275 31.4988C10.0275 29.7586 8.71003 28.4897 7.14857 28.4897C5.58712 28.4897 4.26965 29.7586 4.26965 31.4988C4.26965 33.2391 5.58712 34.508 7.14857 34.508Z" fill="white"/>
<path d="M32.144 32.9366C31.4974 35.6436 29.0943 37.8551 25.8372 37.8551C22.2019 37.8551 19.3962 35.0152 19.3962 31.4864C19.3962 27.9576 22.1531 25.1539 25.7396 25.1539C28.9235 25.1539 31.4974 27.2325 32.1074 30.1571H28.4721C28.0818 29.3353 27.362 28.4773 25.8738 28.4773C24.1659 28.3927 23.0192 29.7824 23.0192 31.4985C23.0192 33.2145 24.1659 34.5318 25.8738 34.5318C27.3742 34.5318 28.0818 33.6737 28.4721 32.9487H32.1318L32.144 32.9366Z" fill="white"/>
<path d="M50.0396 33.7223C49.4541 35.0517 48.6124 36.0789 47.5877 36.7677C46.5874 37.4807 45.4041 37.8433 44.1598 37.8433C40.7197 37.8433 37.792 35.0758 37.792 31.535C37.792 28.2116 40.4269 25.1421 44.0988 25.1421C47.7706 25.1421 50.4422 28.0183 50.4422 31.6437C50.4422 32.115 50.3934 32.3084 50.3568 32.5864H41.3419C41.5614 34.0003 42.7447 34.8462 44.1598 34.8462C45.2577 34.8462 45.8554 34.3507 46.3434 33.7344H50.0274L50.0396 33.7223ZM46.8557 30.1815C46.7093 29.4685 45.9896 28.1391 44.1232 28.1391C42.2568 28.1391 41.5492 29.4685 41.3906 30.1815H46.8557Z" fill="white"/>
<path d="M69.4236 37.4684H65.8249V36.1753H65.7883C65.1784 37.3355 63.6901 37.8672 62.2751 37.8672C58.4568 37.8672 56.2244 34.9064 56.2244 31.4864C56.2244 27.583 59.0668 25.1298 62.2751 25.1298C64.2513 25.1298 65.3492 26.0724 65.7883 26.7975H65.8249V25.5286H69.4236V37.4442V37.4684ZM62.8118 34.5439C65.0686 34.5439 65.8249 32.6586 65.8249 31.4985C65.8249 30.0604 64.8246 28.4773 62.7874 28.4773C60.7502 28.4773 59.8231 30.1933 59.8231 31.5468C59.8231 32.6586 60.6404 34.5559 62.8118 34.5559" fill="white"/>
<path d="M76.377 25.5527H79.7316V26.8216H79.7804C80.1464 26.2416 80.9027 25.1539 83.0497 25.1539C84.1964 25.1539 85.4773 25.6252 86.1238 26.1811C86.7704 26.737 87.5145 27.6797 87.5145 30.0241V37.4805H83.9158V30.9788C83.9158 30.145 83.9158 28.5135 82.0372 28.5135C79.9756 28.5135 79.9756 30.2779 79.9756 31.003V37.4805H76.377V25.5648V25.5527Z" fill="white"/>
<path d="M105.74 34.133C105.74 36.3445 104.19 37.8188 101.848 37.8188C99.9208 37.8188 98.5789 36.8037 98.1276 35.0272L99.4328 34.3868C99.7866 35.849 100.628 36.6104 101.848 36.6104C103.312 36.6104 104.276 35.6798 104.276 34.3626C104.276 33.287 103.641 32.4894 102.385 31.9577L100.897 31.3293C99.2864 30.6525 98.4935 29.6132 98.4935 28.1389C98.4935 26.4591 99.8842 25.1781 101.909 25.1781C103.373 25.1781 104.459 25.8065 105.057 27.0029L103.861 27.7643C103.336 26.8579 102.678 26.3866 101.799 26.3866C100.714 26.3866 99.9452 27.1117 99.9452 28.1389C99.9452 28.9969 100.47 29.6012 101.58 30.0725L103.312 30.8338C104.91 31.5106 105.715 32.6224 105.715 34.133" fill="white"/>
<path d="M117.975 25.4802H116.523V37.5288H117.975V25.4802Z" fill="white"/>
<path d="M141.458 31.3052V31.7161C141.458 35.5591 139.091 37.8431 135.383 37.8431C134.175 37.8431 133.138 37.5773 132.321 37.1422C130.332 36.0667 129.186 34.0727 129.186 31.6315C129.186 29.6254 129.832 28.0061 131.15 26.7734C132.26 25.722 133.724 25.2024 135.468 25.2024C137.786 25.2024 139.506 26.0242 140.641 27.7281L139.433 28.6949C138.555 27.2326 137.237 26.5076 135.517 26.5076C132.687 26.5076 130.759 28.5862 130.759 31.6315C130.759 34.5077 132.748 36.5501 135.517 36.5501C137.932 36.5501 139.738 34.9549 139.909 32.5862H136.432V31.3052H141.446H141.458Z" fill="white"/>
<path d="M152.449 25.0088L161.354 34.6283V25.4801H162.733V38L153.828 28.4771V37.5287H152.449V25.0088Z" fill="white"/>
<path d="M183.861 37.5287H182.3L180.714 33.8428H175.968L174.382 37.5287H172.821L178.335 25.0088L183.861 37.5287ZM176.395 32.6102H180.275L178.335 28.175L176.395 32.6102Z" fill="white"/>
<path d="M193.962 25.4802H195.413V36.1632H200V37.5288H193.962V25.4802Z" fill="white"/>
<path d="M0.0975906 13.0333C0.0975906 13.0333 0.0365965 13.1059 0 13.13V20.2601C14.6996 -2.09688 69.3748 24.0306 87.9293 19.245V16.4896C67.9597 25.3236 18.0665 -4.46551 0.0975906 13.0333Z" fill="#FAAE0C"/>
<path d="M0 0.827338V4.45279C12.7356 -2.24221 37.7188 8.50121 55.9317 13.1901C37.6578 8.01782 13.004 -3.11232 0 0.827338Z" fill="#FAAE0C"/>
<path d="M0 8.74286V14.7853C15.1632 -1.16672 65.0808 22.4108 87.9293 18.024V15.2566C67.667 24.5378 19.0668 -4.18793 0 8.74286Z" fill="#FAAE0C"/>
</svg>
